<svg width="100%" viewBox="0 0 680 580" xmlns="http://www.w3.org/2000/svg">
  <defs>
    <marker id="arrow" viewBox="0 0 10 10" refX="8" refY="5" markerWidth="6" markerHeight="6" orient="auto-start-reverse">
      <path d="M2 1L8 5L2 9" fill="none" stroke="#888780" stroke-width="1.5" stroke-linecap="round" stroke-linejoin="round"/>
    </marker>
    <style>
      text { font-family: system-ui, -apple-system, sans-serif; fill: #3d3d3a; }
      .th  { font-size: 13px; font-weight: 600; }
      .ts  { font-size: 11px; fill: #5F5E5A; }
      .tl  { font-size: 12px; font-weight: 500; fill: #3d3d3a; }
      .box-teal   { fill: #E1F5EE; stroke: #0F6E56; }
      .box-amber  { fill: #FAEEDA; stroke: #854F0B; }
      .box-blue   { fill: #E6F1FB; stroke: #185FA5; }
      .box-coral  { fill: #FAECE7; stroke: #993C1D; }
      .box-gray   { fill: #F1EFE8; stroke: #5F5E5A; }
      .text-teal  { fill: #085041; }
      .text-amber { fill: #633806; }
      .text-blue  { fill: #0C447C; }
      .text-coral { fill: #712B13; }
      .text-gray  { fill: #444441; }
      .arr { stroke: #888780; stroke-width: 1px; fill: none; marker-end: url(#arrow); }
      .dash { fill: none; stroke: #B4B2A9; stroke-width: 0.5; stroke-dasharray: 5 4; }
    </style>
  </defs>

  <!-- Tier 1: Frontend -->
  <text class="tl" x="40" y="36">Frontend (React + TypeScript + Vite)</text>
  <rect class="dash" x="40" y="44" width="600" height="148" rx="12"/>

  <rect class="box-teal" x="58" y="62" width="92" height="52" rx="6" stroke-width="0.5"/>
  <text class="th text-teal" x="104" y="83" text-anchor="middle">Dashboard</text>
  <text class="ts text-teal" x="104" y="100" text-anchor="middle">Live conditions</text>

  <rect class="box-teal" x="166" y="62" width="92" height="52" rx="6" stroke-width="0.5"/>
  <text class="th text-teal" x="212" y="83" text-anchor="middle">ZoneMap</text>
  <text class="ts text-teal" x="212" y="100" text-anchor="middle">Heat zones</text>

  <rect class="box-teal" x="274" y="62" width="92" height="52" rx="6" stroke-width="0.5"/>
  <text class="th text-teal" x="320" y="83" text-anchor="middle">Analysis</text>
  <text class="ts text-teal" x="320" y="100" text-anchor="middle">Charts &amp; trends</text>

  <rect class="box-teal" x="382" y="62" width="104" height="52" rx="6" stroke-width="0.5"/>
  <text class="th text-teal" x="434" y="83" text-anchor="middle">Recommendations</text>
  <text class="ts text-teal" x="434" y="100" text-anchor="middle">GPS-based tips</text>

  <rect class="box-teal" x="502" y="62" width="120" height="52" rx="6" stroke-width="0.5"/>
  <text class="th text-teal" x="562" y="83" text-anchor="middle">Landing / Auth</text>
  <text class="ts text-teal" x="562" y="100" text-anchor="middle">Login · sign-up</text>

  <rect class="box-amber" x="58" y="128" width="200" height="48" rx="6" stroke-width="0.5"/>
  <text class="th text-amber" x="158" y="149" text-anchor="middle">XAI risk engine</text>
  <text class="ts text-amber" x="158" y="166" text-anchor="middle">getRisk(temp, feelsLike, humidity)</text>

  <rect class="box-gray" x="274" y="128" width="100" height="48" rx="6" stroke-width="0.5"/>
  <text class="th text-gray" x="324" y="149" text-anchor="middle">Recharts</text>
  <text class="ts text-gray" x="324" y="166" text-anchor="middle">Visualisation</text>

  <rect class="box-gray" x="390" y="128" width="100" height="48" rx="6" stroke-width="0.5"/>
  <text class="th text-gray" x="440" y="149" text-anchor="middle">Leaflet</text>
  <text class="ts text-gray" x="440" y="166" text-anchor="middle">Map tiles</text>

  <rect class="box-gray" x="506" y="128" width="118" height="48" rx="6" stroke-width="0.5"/>
  <text class="th text-gray" x="565" y="149" text-anchor="middle">Overpass API</text>
  <text class="ts text-gray" x="565" y="166" text-anchor="middle">WB city discovery</text>

  <!-- Arrows tier1 → tier2 -->
  <line class="arr" x1="340" y1="192" x2="340" y2="236"/>
  <line class="arr" x1="240" y1="192" x2="200" y2="236"/>
  <line class="arr" x1="450" y1="192" x2="480" y2="236"/>
  <line class="arr" x1="562" y1="192" x2="562" y2="236"/>

  <!-- Tier 2: External APIs -->
  <text class="tl" x="40" y="228">External APIs</text>
  <rect class="dash" x="40" y="236" width="600" height="76" rx="12"/>

  <rect class="box-blue" x="58" y="252" width="170" height="44" rx="6" stroke-width="0.5"/>
  <text class="th text-blue" x="143" y="270" text-anchor="middle">OpenWeather API</text>
  <text class="ts text-blue" x="143" y="287" text-anchor="middle">Current + forecast</text>

  <rect class="box-blue" x="244" y="252" width="152" height="44" rx="6" stroke-width="0.5"/>
  <text class="th text-blue" x="320" y="270" text-anchor="middle">Nominatim</text>
  <text class="ts text-blue" x="320" y="287" text-anchor="middle">Geocoding · autocomplete</text>

  <rect class="box-blue" x="412" y="252" width="148" height="44" rx="6" stroke-width="0.5"/>
  <text class="th text-blue" x="486" y="270" text-anchor="middle">Browser GPS</text>
  <text class="ts text-blue" x="486" y="287" text-anchor="middle">navigator.geolocation</text>

  <rect class="box-blue" x="576" y="252" width="52" height="44" rx="6" stroke-width="0.5"/>
  <text class="th text-blue" x="602" y="270" text-anchor="middle">OSM</text>
  <text class="ts text-blue" x="602" y="287" text-anchor="middle">Cities</text>

  <!-- Arrows tier2 → tier3 -->
  <line class="arr" x1="340" y1="312" x2="340" y2="356"/>
  <line class="arr" x1="143" y1="296" x2="200" y2="356"/>
  <line class="arr" x1="486" y1="296" x2="460" y2="356"/>

  <!-- Tier 3: Backend / Auth -->
  <text class="tl" x="40" y="348">Backend · Auth (Firebase)</text>
  <rect class="dash" x="40" y="356" width="600" height="76" rx="12"/>

  <rect class="box-coral" x="58" y="372" width="156" height="44" rx="6" stroke-width="0.5"/>
  <text class="th text-coral" x="136" y="390" text-anchor="middle">Firebase Auth</text>
  <text class="ts text-coral" x="136" y="407" text-anchor="middle">Email + Google OAuth</text>

  <rect class="box-coral" x="230" y="372" width="140" height="44" rx="6" stroke-width="0.5"/>
  <text class="th text-coral" x="300" y="390" text-anchor="middle">AuthContext</text>
  <text class="ts text-coral" x="300" y="407" text-anchor="middle">Session state</text>

  <rect class="box-coral" x="386" y="372" width="140" height="44" rx="6" stroke-width="0.5"/>
  <text class="th text-coral" x="456" y="390" text-anchor="middle">ZoneContext</text>
  <text class="ts text-coral" x="456" y="407" text-anchor="middle">Shared zone state</text>

  <rect class="box-gray" x="542" y="372" width="86" height="44" rx="6" stroke-width="0.5"/>
  <text class="th text-gray" x="585" y="390" text-anchor="middle">Vercel</text>
  <text class="ts text-gray" x="585" y="407" text-anchor="middle">Deployment</text>

  <!-- Legend -->
  <rect x="40" y="456" width="600" height="106" rx="8" fill="none" stroke="#D3D1C7" stroke-width="0.5"/>
  <text class="tl" x="56" y="476">Legend</text>

  <rect class="box-teal" x="56" y="488" width="14" height="14" rx="3" stroke-width="0.5"/>
  <text class="ts" x="76" y="500">Pages</text>

  <rect class="box-amber" x="150" y="488" width="14" height="14" rx="3" stroke-width="0.5"/>
  <text class="ts" x="170" y="500">XAI engine (explainability)</text>

  <rect class="box-blue" x="354" y="488" width="14" height="14" rx="3" stroke-width="0.5"/>
  <text class="ts" x="374" y="500">External APIs</text>

  <rect class="box-coral" x="480" y="488" width="14" height="14" rx="3" stroke-width="0.5"/>
  <text class="ts" x="500" y="500">Auth / context</text>

  <text class="ts" x="56" y="524">Stack: React · TypeScript · Vite · Firebase · Recharts · Leaflet · Tailwind CSS</text>
  <text class="ts" x="56" y="542">Deployed: Vercel · Data: OpenWeatherMap API (free tier) + OpenStreetMap</text>
</svg>